<mxfile host="app.diagrams.net" agent="Mozilla/5.0 (Macintosh; Intel Mac OS X 10_15_7) AppleWebKit/537.36 (KHTML, like Gecko) Chrome/129.0.0.0 Safari/537.36" version="24.7.17">
  <diagram name="Page-1" id="4bl1db22pGXXLerN5upG">
    <mxGraphModel dx="984" dy="582" grid="1" gridSize="10" guides="1" tooltips="1" connect="1" arrows="1" fold="1" page="1" pageScale="1" pageWidth="850" pageHeight="1100" math="0" shadow="0">
      <root>
        <mxCell id="0" />
        <mxCell id="1" parent="0" />
        <mxCell id="xnM3Pjeydj1SRlyMix0P-1" value="Player/Team/League Database" style="rounded=0;whiteSpace=wrap;html=1;" vertex="1" parent="1">
          <mxGeometry x="80" y="90" width="190" height="60" as="geometry" />
        </mxCell>
        <mxCell id="xnM3Pjeydj1SRlyMix0P-2" value="Autocomplete Engine" style="rounded=0;whiteSpace=wrap;html=1;" vertex="1" parent="1">
          <mxGeometry x="80" y="230" width="190" height="60" as="geometry" />
        </mxCell>
        <mxCell id="xnM3Pjeydj1SRlyMix0P-4" value="Backend" style="ellipse;whiteSpace=wrap;html=1;" vertex="1" parent="1">
          <mxGeometry x="60" width="220" height="80" as="geometry" />
        </mxCell>
        <mxCell id="xnM3Pjeydj1SRlyMix0P-6" value="Internal Web Application" style="rounded=0;whiteSpace=wrap;html=1;" vertex="1" parent="1">
          <mxGeometry x="560" y="10" width="200" height="60" as="geometry" />
        </mxCell>
        <mxCell id="xnM3Pjeydj1SRlyMix0P-7" value="Users (Coaches, Scouts,&lt;br&gt;Managers)" style="ellipse;shape=cloud;whiteSpace=wrap;html=1;" vertex="1" parent="1">
          <mxGeometry x="550" y="85" width="180" height="70" as="geometry" />
        </mxCell>
        <mxCell id="xnM3Pjeydj1SRlyMix0P-10" value="Search Query Box" style="rounded=0;whiteSpace=wrap;html=1;" vertex="1" parent="1">
          <mxGeometry x="580" y="170" width="120" height="60" as="geometry" />
        </mxCell>
        <mxCell id="xnM3Pjeydj1SRlyMix0P-11" value="" style="endArrow=classic;html=1;rounded=0;entryX=1;entryY=0.75;entryDx=0;entryDy=0;exitX=0;exitY=0.75;exitDx=0;exitDy=0;" edge="1" parent="1" source="xnM3Pjeydj1SRlyMix0P-10" target="xnM3Pjeydj1SRlyMix0P-2">
          <mxGeometry width="50" height="50" relative="1" as="geometry">
            <mxPoint x="520" y="220" as="sourcePoint" />
            <mxPoint x="570" y="170" as="targetPoint" />
          </mxGeometry>
        </mxCell>
        <mxCell id="xnM3Pjeydj1SRlyMix0P-12" value="" style="endArrow=classic;html=1;rounded=0;entryX=0.5;entryY=1;entryDx=0;entryDy=0;" edge="1" parent="1" target="xnM3Pjeydj1SRlyMix0P-1">
          <mxGeometry width="50" height="50" relative="1" as="geometry">
            <mxPoint x="180" y="230" as="sourcePoint" />
            <mxPoint x="180" y="180" as="targetPoint" />
          </mxGeometry>
        </mxCell>
        <mxCell id="xnM3Pjeydj1SRlyMix0P-13" value="" style="endArrow=classic;html=1;rounded=0;entryX=0.8;entryY=-0.05;entryDx=0;entryDy=0;entryPerimeter=0;" edge="1" parent="1" target="xnM3Pjeydj1SRlyMix0P-2">
          <mxGeometry width="50" height="50" relative="1" as="geometry">
            <mxPoint x="230" y="150" as="sourcePoint" />
            <mxPoint x="270" y="240" as="targetPoint" />
          </mxGeometry>
        </mxCell>
        <mxCell id="xnM3Pjeydj1SRlyMix0P-14" value="Cache" style="rounded=0;whiteSpace=wrap;html=1;" vertex="1" parent="1">
          <mxGeometry x="290" y="150" width="120" height="60" as="geometry" />
        </mxCell>
        <mxCell id="xnM3Pjeydj1SRlyMix0P-15" value="" style="endArrow=classic;html=1;rounded=0;entryX=-0.017;entryY=0.65;entryDx=0;entryDy=0;entryPerimeter=0;" edge="1" parent="1" target="xnM3Pjeydj1SRlyMix0P-14">
          <mxGeometry width="50" height="50" relative="1" as="geometry">
            <mxPoint x="260" y="230" as="sourcePoint" />
            <mxPoint x="310" y="180" as="targetPoint" />
          </mxGeometry>
        </mxCell>
      </root>
    </mxGraphModel>
  </diagram>
</mxfile>
